<svg width="24" height="24" viewBox="0 0 24 24" fill="none" xmlns="http://www.w3.org/2000/svg">
<path fill-rule="evenodd" clip-rule="evenodd" d="M5.9996 10.8C6.63612 10.8 7.24657 10.5471 7.69665 10.097C8.14674 9.64696 8.3996 9.03651 8.3996 8.39999C8.3996 7.76347 8.14674 7.15302 7.69665 6.70293C7.24657 6.25284 6.63612 5.99999 5.9996 5.99999C5.36308 5.99999 4.75263 6.25284 4.30254 6.70293C3.85245 7.15302 3.5996 7.76347 3.5996 8.39999C3.5996 9.03651 3.85245 9.64696 4.30254 10.097C4.75263 10.5471 5.36308 10.8 5.9996 10.8ZM5.9996 12C6.47236 12 6.94049 11.9069 7.37726 11.726C7.81403 11.545 8.21089 11.2799 8.54518 10.9456C8.87947 10.6113 9.14465 10.2144 9.32556 9.77765C9.50648 9.34088 9.5996 8.87275 9.5996 8.39999C9.5996 7.92723 9.50648 7.4591 9.32556 7.02233C9.14465 6.58556 8.87947 6.18869 8.54518 5.8544C8.21089 5.52011 7.81403 5.25494 7.37726 5.07402C6.94049 4.8931 6.47236 4.79999 5.9996 4.79999C5.04482 4.79999 4.12914 5.17927 3.45401 5.8544C2.77888 6.52953 2.3996 7.44521 2.3996 8.39999C2.3996 9.35477 2.77888 10.2704 3.45401 10.9456C4.12914 11.6207 5.04482 12 5.9996 12Z" fill="#0076F4"/>
<path fill-rule="evenodd" clip-rule="evenodd" d="M4.62479 10.6752C4.68066 10.7309 4.72499 10.7971 4.75524 10.87C4.78549 10.9429 4.80106 11.0211 4.80106 11.1C4.80106 11.1789 4.78549 11.2571 4.75524 11.3299C4.72499 11.4028 4.68066 11.4691 4.62479 11.5248L4.21919 11.9292C3.43863 12.71 3.00009 13.7688 2.99999 14.8728V17.1C2.99999 17.2591 2.93677 17.4117 2.82425 17.5243C2.71173 17.6368 2.55912 17.7 2.39999 17.7C2.24086 17.7 2.08825 17.6368 1.97572 17.5243C1.8632 17.4117 1.79999 17.2591 1.79999 17.1V14.8728C1.80016 13.4505 2.36517 12.0866 3.37079 11.0808L3.77519 10.6752C3.83092 10.6193 3.89713 10.575 3.97003 10.5447C4.04292 10.5145 4.12107 10.4989 4.19999 10.4989C4.27891 10.4989 4.35705 10.5145 4.42995 10.5447C4.50284 10.575 4.56905 10.6193 4.62479 10.6752ZM18.7752 10.3152C18.7193 10.3709 18.675 10.4371 18.6447 10.51C18.6145 10.5829 18.5989 10.6611 18.5989 10.74C18.5989 10.8189 18.6145 10.8971 18.6447 10.9699C18.675 11.0428 18.7193 11.1091 18.7752 11.1648L19.1808 11.5692C19.5673 11.9558 19.874 12.4147 20.0831 12.9197C20.2923 13.4248 20.4 13.9661 20.4 14.5128V17.1C20.4 17.2591 20.4632 17.4117 20.5757 17.5243C20.6882 17.6368 20.8409 17.7 21 17.7C21.1591 17.7 21.3117 17.6368 21.4243 17.5243C21.5368 17.4117 21.6 17.2591 21.6 17.1V14.5128C21.5998 13.0905 21.0348 11.7266 20.0292 10.7208L19.6248 10.3152C19.5691 10.2593 19.5028 10.215 19.4299 10.1847C19.3571 10.1545 19.2789 10.1389 19.2 10.1389C19.1211 10.1389 19.0429 10.1545 18.97 10.1847C18.8971 10.215 18.8309 10.2593 18.7752 10.3152Z" fill="#0076F4"/>
<path fill-rule="evenodd" clip-rule="evenodd" d="M16.8004 10.8C16.1639 10.8 15.5534 10.5471 15.1033 10.097C14.6532 9.64696 14.4004 9.03651 14.4004 8.39999C14.4004 7.76347 14.6532 7.15302 15.1033 6.70293C15.5534 6.25284 16.1639 5.99999 16.8004 5.99999C17.4369 5.99999 18.0473 6.25284 18.4974 6.70293C18.9475 7.15302 19.2004 7.76347 19.2004 8.39999C19.2004 9.03651 18.9475 9.64696 18.4974 10.097C18.0473 10.5471 17.4369 10.8 16.8004 10.8ZM16.8004 12C16.3276 12 15.8595 11.9069 15.4227 11.726C14.9859 11.545 14.5891 11.2799 14.2548 10.9456C13.9205 10.6113 13.6553 10.2144 13.4744 9.77765C13.2935 9.34088 13.2004 8.87275 13.2004 8.39999C13.2004 7.92723 13.2935 7.4591 13.4744 7.02233C13.6553 6.58556 13.9205 6.18869 14.2548 5.8544C14.5891 5.52011 14.9859 5.25494 15.4227 5.07402C15.8595 4.8931 16.3276 4.79999 16.8004 4.79999C17.7552 4.79999 18.6708 5.17927 19.346 5.8544C20.0211 6.52953 20.4004 7.44521 20.4004 8.39999C20.4004 9.35477 20.0211 10.2704 19.346 10.9456C18.6708 11.6207 17.7552 12 16.8004 12ZM11.4004 15.9C10.6047 15.9 9.84167 16.2161 9.27906 16.7787C8.71645 17.3413 8.40038 18.1043 8.40038 18.9V20.46C8.40038 20.6191 8.33716 20.7717 8.22464 20.8843C8.11212 20.9968 7.95951 21.06 7.80038 21.06C7.64125 21.06 7.48864 20.9968 7.37611 20.8843C7.26359 20.7717 7.20038 20.6191 7.20038 20.46V18.9C7.20038 17.7861 7.64288 16.7178 8.43053 15.9301C9.21818 15.1425 10.2865 14.7 11.4004 14.7C12.5143 14.7 13.5826 15.1425 14.3702 15.9301C15.1579 16.7178 15.6004 17.7861 15.6004 18.9V20.46C15.6004 20.6191 15.5372 20.7717 15.4246 20.8843C15.3121 20.9968 15.1595 21.06 15.0004 21.06C14.8412 21.06 14.6886 20.9968 14.5761 20.8843C14.4636 20.7717 14.4004 20.6191 14.4004 20.46V18.9C14.4004 18.506 14.3228 18.1159 14.172 17.7519C14.0213 17.388 13.8003 17.0572 13.5217 16.7787C13.2431 16.5001 12.9124 16.2791 12.5484 16.1283C12.1845 15.9776 11.7943 15.9 11.4004 15.9Z" fill="#0076F4"/>
<path fill-rule="evenodd" clip-rule="evenodd" d="M11.4 14.1C12.0365 14.1 12.647 13.8471 13.097 13.397C13.5471 12.9469 13.8 12.3365 13.8 11.7C13.8 11.0635 13.5471 10.453 13.097 10.0029C12.647 9.55283 12.0365 9.29998 11.4 9.29998C10.7635 9.29998 10.153 9.55283 9.70293 10.0029C9.25284 10.453 8.99999 11.0635 8.99999 11.7C8.99999 12.3365 9.25284 12.9469 9.70293 13.397C10.153 13.8471 10.7635 14.1 11.4 14.1ZM11.4 15.3C12.3548 15.3 13.2704 14.9207 13.9456 14.2456C14.6207 13.5704 15 12.6548 15 11.7C15 10.7452 14.6207 9.82952 13.9456 9.15439C13.2704 8.47926 12.3548 8.09998 11.4 8.09998C10.4452 8.09998 9.52953 8.47926 8.8544 9.15439C8.17927 9.82952 7.79999 10.7452 7.79999 11.7C7.79999 12.6548 8.17927 13.5704 8.8544 14.2456C9.52953 14.9207 10.4452 15.3 11.4 15.3Z" fill="#0076F4"/>
</svg>
