<svg width="24" height="24" viewBox="0 0 24 24" fill="none" xmlns="http://www.w3.org/2000/svg">
<path d="M17.001 21L14.251 18L15.411 16.84L17.001 18.43L20.591 14.84L21.751 16.25M12.801 21H5.00098C3.89098 21 3.00098 20.11 3.00098 19V5C3.00098 3.89 3.89098 3 5.00098 3H19.001C20.111 3 21.001 3.89 21.001 5V12.8C20.391 12.45 19.721 12.2 19.001 12.08V5H5.00098V19H12.081C12.201 19.72 12.451 20.39 12.801 21ZM12.001 17H7.00098V15H12.001M14.681 13H7.00098V11H17.001V12.08C16.151 12.22 15.371 12.54 14.681 13ZM17.001 9H7.00098V7H17.001" fill="#F24E1E"/>
</svg>
