<svg width="24" height="24" viewBox="0 0 24 24" fill="none" xmlns="http://www.w3.org/2000/svg">
<path d="M20.25 2.75H3.75C3.48478 2.75 3.23043 2.85536 3.04289 3.04289C2.85536 3.23043 2.75 3.48478 2.75 3.75V20.25C2.75 20.5152 2.85536 20.7696 3.04289 20.9571C3.23043 21.1446 3.48478 21.25 3.75 21.25H20.25C20.5152 21.25 20.7696 21.1446 20.9571 20.9571C21.1446 20.7696 21.25 20.5152 21.25 20.25V3.75C21.25 3.48478 21.1446 3.23043 20.9571 3.04289C20.7696 2.85536 20.5152 2.75 20.25 2.75Z" stroke="#7A3DD9" stroke-width="0.416667" stroke-linecap="round" stroke-linejoin="round"/>
<path d="M7.956 9.04395V12.7279C7.956 13.4059 7.406 13.9559 6.728 13.9559C6.56674 13.9559 6.40705 13.9242 6.25806 13.8625C6.10908 13.8008 5.9737 13.7103 5.85967 13.5963C5.74564 13.4822 5.65519 13.3469 5.59348 13.1979C5.53176 13.0489 5.5 12.8892 5.5 12.7279V12.3199" stroke="#7A3DD9" stroke-width="0.416667" stroke-linecap="round" stroke-linejoin="round"/>
<path d="M11.6055 11.93C11.6055 11.2518 11.0557 10.702 10.3775 10.702C9.69927 10.702 9.14948 11.2518 9.14948 11.93V12.728C9.14948 13.4062 9.69927 13.956 10.3775 13.956C11.0557 13.956 11.6055 13.4062 11.6055 12.728V11.93Z" stroke="#7A3DD9" stroke-width="0.416667" stroke-linecap="round" stroke-linejoin="round"/>
<path d="M16.403 13.6814C16.627 13.8699 16.869 13.9559 17.413 13.9559H17.688C18.1365 13.9559 18.5 13.5919 18.5 13.1424C18.5 12.6929 18.1365 12.3289 17.688 12.3289H17.137C17.0303 12.3288 16.9247 12.3077 16.8262 12.2667C16.7276 12.2258 16.6381 12.1658 16.5628 12.0903C16.4874 12.0147 16.4277 11.9251 16.387 11.8265C16.3463 11.7278 16.3254 11.6221 16.3255 11.5154C16.3255 11.0659 16.689 10.7019 17.137 10.7019H17.4125C17.9565 10.7019 18.1985 10.7879 18.4225 10.9764M12.7705 11.9299C12.7705 11.2514 13.3205 10.7019 13.9985 10.7019C14.6765 10.7019 15.2265 11.2519 15.2265 11.9299V12.7279C15.2265 13.4059 14.6765 13.9559 13.9985 13.9559C13.6728 13.9559 13.3605 13.8266 13.1302 13.5963C12.8999 13.366 12.7705 13.0536 12.7705 12.7279M12.7705 13.9559V9.04395" stroke="#7A3DD9" stroke-width="0.416667" stroke-linecap="round" stroke-linejoin="round"/>
</svg>
