<svg width="405" height="430" viewBox="0 0 405 430" fill="none" xmlns="http://www.w3.org/2000/svg">
<g filter="url(#filter0_f_313_963)">
<path d="M266.789 173.707C275.511 230.2 236.785 283.066 180.293 291.788C123.801 300.51 70.9347 261.785 62.2126 205.293C53.4906 148.801 92.2158 95.9342 148.708 87.2122C205.2 78.4901 258.067 117.215 266.789 173.707Z" fill="white" fill-opacity="0.12"/>
</g>
<path d="M134.351 64.4417C130.12 32.0493 157.581 4.36711 190.007 8.33755L294.14 21.0885C330.18 25.5016 349.647 65.647 330.795 96.6787L322.745 109.929C285.495 171.243 298.545 250.563 353.474 296.711V296.711C378.813 317.999 375.83 357.859 347.606 375.139L308.29 399.21C281.956 415.333 247.447 403.969 235.846 375.353L217.062 329.02C206.844 303.816 177.134 292.897 153.027 305.487V305.487C113.675 326.039 70.8763 284.525 90.22 244.565L136.991 147.947C141.237 139.174 142.828 129.351 141.565 119.686L134.351 64.4417Z" fill="#31214A"/>
<path d="M165.213 262.414V249.816C165.213 243.762 165.945 238.293 167.41 233.41C168.973 228.527 171.707 223.889 175.613 219.494C179.52 215.1 184.939 210.705 191.873 206.311C198.514 202.111 203.396 198.498 206.521 195.471C209.646 192.346 211.697 189.514 212.674 186.975C213.65 184.338 214.139 181.701 214.139 179.064C214.139 174.963 212.283 171.74 208.572 169.396C204.861 166.955 200.027 165.734 194.07 165.734C186.648 165.734 178.592 167.053 169.9 169.689C161.307 172.326 152.127 176.232 142.361 181.408L122 141.564C133.035 135.217 144.803 130.188 157.303 126.477C169.803 122.668 183.426 120.764 198.172 120.764C220.34 120.764 237.527 125.695 249.734 135.559C261.941 145.324 268.045 158.215 268.045 174.23C268.045 181.848 266.873 188.83 264.529 195.178C262.186 201.525 258.475 207.482 253.396 213.049C248.318 218.615 241.629 224.084 233.328 229.455C227.469 233.166 222.83 236.34 219.412 238.977C216.092 241.613 213.699 244.152 212.234 246.594C210.867 249.035 210.184 251.818 210.184 254.943V262.414H165.213ZM158.914 313.684C158.914 303.332 161.893 296.057 167.85 291.857C173.904 287.658 181.229 285.559 189.822 285.559C198.025 285.559 205.105 287.658 211.062 291.857C217.117 296.057 220.145 303.332 220.145 313.684C220.145 323.547 217.117 330.676 211.062 335.07C205.105 339.465 198.025 341.662 189.822 341.662C181.229 341.662 173.904 339.465 167.85 335.07C161.893 330.676 158.914 323.547 158.914 313.684Z" fill="#FC7032" fill-opacity="0.3"/>
<path d="M169.213 250.414V237.816C169.213 231.762 169.945 226.293 171.41 221.41C172.973 216.527 175.707 211.889 179.613 207.494C183.52 203.1 188.939 198.705 195.873 194.311C202.514 190.111 207.396 186.498 210.521 183.471C213.646 180.346 215.697 177.514 216.674 174.975C217.65 172.338 218.139 169.701 218.139 167.064C218.139 162.963 216.283 159.74 212.572 157.396C208.861 154.955 204.027 153.734 198.07 153.734C190.648 153.734 182.592 155.053 173.9 157.689C165.307 160.326 156.127 164.232 146.361 169.408L126 129.564C137.035 123.217 148.803 118.187 161.303 114.477C173.803 110.668 187.426 108.764 202.172 108.764C224.34 108.764 241.527 113.695 253.734 123.559C265.941 133.324 272.045 146.215 272.045 162.23C272.045 169.848 270.873 176.83 268.529 183.178C266.186 189.525 262.475 195.482 257.396 201.049C252.318 206.615 245.629 212.084 237.328 217.455C231.469 221.166 226.83 224.34 223.412 226.977C220.092 229.613 217.699 232.152 216.234 234.594C214.867 237.035 214.184 239.818 214.184 242.943V250.414H169.213ZM162.914 301.684C162.914 291.332 165.893 284.057 171.85 279.857C177.904 275.658 185.229 273.559 193.822 273.559C202.025 273.559 209.105 275.658 215.062 279.857C221.117 284.057 224.145 291.332 224.145 301.684C224.145 311.547 221.117 318.676 215.062 323.07C209.105 327.465 202.025 329.662 193.822 329.662C185.229 329.662 177.904 327.465 171.85 323.07C165.893 318.676 162.914 311.547 162.914 301.684Z" fill="white"/>
<line x1="229.707" y1="2.70711" x2="197.707" y2="34.7071" stroke="#AB863F" stroke-width="2"/>
<line x1="241.707" y1="2.70711" x2="209.707" y2="34.7071" stroke="#AB863F" stroke-width="2"/>
<line x1="253.698" y1="2.716" x2="213.698" y2="41.716" stroke="#AB863F" stroke-width="2"/>
<line x1="265.715" y1="2.69893" x2="222.715" y2="46.6989" stroke="#AB863F" stroke-width="2"/>
<line x1="277.707" y1="2.70711" x2="229.707" y2="50.7071" stroke="#AB863F" stroke-width="2"/>
<line x1="289.701" y1="2.71345" x2="233.701" y2="57.7135" stroke="#AB863F" stroke-width="2"/>
<line x1="301.707" y1="2.70711" x2="241.707" y2="62.7071" stroke="#AB863F" stroke-width="2"/>
<line x1="313.702" y1="2.71248" x2="247.702" y2="67.7125" stroke="#AB863F" stroke-width="2"/>
<line x1="325.688" y1="2.72595" x2="249.688" y2="74.726" stroke="#AB863F" stroke-width="2"/>
<line x1="337.689" y1="2.72456" x2="255.689" y2="80.7246" stroke="#AB863F" stroke-width="2"/>
<line x1="349.687" y1="2.72679" x2="258.687" y2="88.7268" stroke="#AB863F" stroke-width="2"/>
<line x1="361.688" y1="2.72537" x2="263.688" y2="95.7254" stroke="#AB863F" stroke-width="2"/>
<line x1="373.68" y1="2.73327" x2="263.68" y2="104.733" stroke="#AB863F" stroke-width="2"/>
<ellipse cx="114" cy="35.5" rx="8" ry="8.5" fill="white"/>
<circle cx="159" cy="205" r="6" fill="white"/>
<circle cx="97" cy="195" r="3" fill="white"/>
<ellipse cx="298" cy="332.5" rx="8" ry="8.5" fill="white"/>
<path d="M310.5 263.5C310.5 267.453 307.505 270.5 304 270.5C300.495 270.5 297.5 267.453 297.5 263.5C297.5 259.547 300.495 256.5 304 256.5C307.505 256.5 310.5 259.547 310.5 263.5Z" stroke="#AB863F" stroke-width="3"/>
<path d="M96.5 294.5C96.5 298.453 93.5055 301.5 90 301.5C86.4945 301.5 83.5 298.453 83.5 294.5C83.5 290.547 86.4945 287.5 90 287.5C93.5055 287.5 96.5 290.547 96.5 294.5Z" stroke="#AB863F" stroke-width="3"/>
<path d="M93.5 100.5C93.5 104.453 90.5055 107.5 87 107.5C83.4945 107.5 80.5 104.453 80.5 100.5C80.5 96.547 83.4945 93.5 87 93.5C90.5055 93.5 93.5 96.547 93.5 100.5Z" stroke="#AB863F" stroke-width="3"/>
<defs>
<filter id="filter0_f_313_963" x="0.98584" y="25.9856" width="327.029" height="327.029" filterUnits="userSpaceOnUse" color-interpolation-filters="sRGB">
<feFlood flood-opacity="0" result="BackgroundImageFix"/>
<feBlend mode="normal" in="SourceGraphic" in2="BackgroundImageFix" result="shape"/>
<feGaussianBlur stdDeviation="30" result="effect1_foregroundBlur_313_963"/>
</filter>
</defs>
</svg>
