<svg width="8" height="13" viewBox="0 0 8 13" fill="none" xmlns="http://www.w3.org/2000/svg">
<path d="M2.15625 8.21094V7.63281C2.15625 7.27865 2.20573 6.96615 2.30469 6.69531C2.40365 6.41927 2.5625 6.15885 2.78125 5.91406C3 5.66406 3.28906 5.40885 3.64844 5.14844C3.97135 4.91927 4.22917 4.71354 4.42188 4.53125C4.61979 4.34896 4.76302 4.16927 4.85156 3.99219C4.94531 3.8099 4.99219 3.60417 4.99219 3.375C4.99219 3.03646 4.86719 2.77865 4.61719 2.60156C4.36719 2.42448 4.01823 2.33594 3.57031 2.33594C3.1224 2.33594 2.67708 2.40625 2.23438 2.54688C1.79688 2.6875 1.35156 2.8724 0.898438 3.10156L0.046875 1.39062C0.567708 1.09896 1.13281 0.864583 1.74219 0.6875C2.35156 0.505208 3.01823 0.414062 3.74219 0.414062C4.85677 0.414062 5.71875 0.682292 6.32812 1.21875C6.94271 1.75 7.25 2.42708 7.25 3.25C7.25 3.6875 7.17969 4.06771 7.03906 4.39062C6.90365 4.70833 6.69531 5.00521 6.41406 5.28125C6.13802 5.55208 5.79167 5.83854 5.375 6.14062C5.0625 6.36979 4.82292 6.5625 4.65625 6.71875C4.48958 6.875 4.375 7.03125 4.3125 7.1875C4.25521 7.33854 4.22656 7.52344 4.22656 7.74219V8.21094H2.15625ZM1.90625 10.8828C1.90625 10.3932 2.03906 10.0495 2.30469 9.85156C2.57552 9.65365 2.90104 9.55469 3.28125 9.55469C3.65104 9.55469 3.96875 9.65365 4.23438 9.85156C4.50521 10.0495 4.64062 10.3932 4.64062 10.8828C4.64062 11.3516 4.50521 11.6901 4.23438 11.8984C3.96875 12.1068 3.65104 12.2109 3.28125 12.2109C2.90104 12.2109 2.57552 12.1068 2.30469 11.8984C2.03906 11.6901 1.90625 11.3516 1.90625 10.8828Z" fill="#1C1E26"/>
</svg>
