<svg width="18" height="18" viewBox="0 0 18 18" fill="none" xmlns="http://www.w3.org/2000/svg">
<g clip-path="url(#clip0_521_5555)">
<path d="M11.6092 12.8879C10.1626 14.0116 8.34214 14.5418 6.51843 14.3704C4.69473 14.199 3.00492 13.3389 1.79308 11.9653C0.581245 10.5917 -0.0615073 8.80793 -0.00429646 6.97708C0.0529143 5.14623 0.805786 3.40602 2.10102 2.11079C3.39626 0.815552 5.13647 0.06268 6.96731 0.00546916C8.79816 -0.0517416 10.582 0.59101 11.9556 1.80285C13.3291 3.01469 14.1892 4.7045 14.3606 6.5282C14.532 8.3519 14.0019 10.1724 12.8782 11.6189L17.6932 16.4159L16.4152 17.6939L11.6182 12.8879H11.6092ZM7.19917 12.5999C7.90831 12.5999 8.6105 12.4603 9.26566 12.1889C9.92082 11.9175 10.5161 11.5197 11.0175 11.0183C11.519 10.5169 11.9167 9.92158 12.1881 9.26642C12.4595 8.61126 12.5992 7.90907 12.5992 7.19993C12.5992 6.49079 12.4595 5.7886 12.1881 5.13344C11.9167 4.47828 11.519 3.88299 11.0175 3.38156C10.5161 2.88012 9.92082 2.48236 9.26566 2.21098C8.6105 1.93961 7.90831 1.79993 7.19917 1.79993C5.767 1.79993 4.39349 2.36886 3.38079 3.38156C2.36809 4.39425 1.79917 5.76776 1.79917 7.19993C1.79917 8.6321 2.36809 10.0056 3.38079 11.0183C4.39349 12.031 5.767 12.5999 7.19917 12.5999Z" fill="#B4B4B4"/>
</g>
<defs>
<clipPath id="clip0_521_5555">
<rect width="18" height="18" fill="white"/>
</clipPath>
</defs>
</svg>
