<svg width="24" height="24" viewBox="0 0 24 24" fill="none" xmlns="http://www.w3.org/2000/svg">
<path d="M10.1996 9.2C12.1878 9.2 13.7996 7.58822 13.7996 5.6C13.7996 3.61177 12.1878 2 10.1996 2C8.21138 2 6.59961 3.61177 6.59961 5.6C6.59961 7.58822 8.21138 9.2 10.1996 9.2Z" stroke="#868686" stroke-width="2"/>
<path d="M15.5996 9.46961L16.7993 10.5496L19.1996 7.84961" stroke="#868686" stroke-width="2" stroke-linecap="round" stroke-linejoin="round"/>
<path d="M17.3982 16.4004C17.4 16.2528 17.4 16.1025 17.4 15.9504C17.4 13.7139 14.1762 11.9004 10.2 11.9004C6.2238 11.9004 3 13.7139 3 15.9504C3 18.1869 3 20.0004 10.2 20.0004C12.2079 20.0004 13.656 19.8591 14.7 19.6071" stroke="#868686" stroke-width="2" stroke-linecap="round"/>
</svg>
