<svg width="24" height="24" viewBox="0 0 24 24" fill="none" xmlns="http://www.w3.org/2000/svg">
<mask id="path-1-inside-1_287_2474" fill="white">
<path d="M17.4839 15.3333H17.4703C17.3325 15.33 17.1993 15.2813 17.0902 15.1942C16.9811 15.1071 16.9018 14.9863 16.8639 14.8493L14.8194 7.46L13.571 10.9C13.525 11.0271 13.4427 11.1366 13.3349 11.2141C13.2271 11.2915 13.099 11.3331 12.9677 11.3333H10.3871V10H12.5206L14.2994 5.09933C14.347 4.96793 14.4335 4.85541 14.5466 4.77779C14.6597 4.70017 14.7937 4.6614 14.9293 4.66702C15.065 4.67263 15.1955 4.72234 15.3023 4.80906C15.409 4.89578 15.4866 5.01509 15.5239 5.15L17.531 12.4113L18.8077 8.456C18.8504 8.32325 18.9325 8.20776 19.0423 8.12591C19.152 8.04406 19.284 8.00001 19.4194 8H22V9.33333H19.8839L18.0955 14.8773C18.0529 15.0101 17.9709 15.1257 17.8611 15.2076C17.7512 15.2894 17.6193 15.3334 17.4839 15.3333ZM11.0323 20H9.74194V15.3333C9.74142 14.8031 9.53734 14.2947 9.17448 13.9197C8.81162 13.5447 8.31962 13.3339 7.80645 13.3333H5.22581C4.71264 13.3339 4.22064 13.5447 3.85778 13.9197C3.49492 14.2947 3.29083 14.8031 3.29032 15.3333V20H2V15.3333C2.00102 14.4496 2.34121 13.6024 2.94595 12.9775C3.55068 12.3526 4.37058 12.0011 5.22581 12H7.80645C8.66167 12.0011 9.48158 12.3526 10.0863 12.9775C10.691 13.6024 11.0312 14.4496 11.0323 15.3333V20ZM6.51613 5.33333C6.89893 5.33333 7.27314 5.45063 7.59143 5.67039C7.90971 5.89016 8.15779 6.20251 8.30428 6.56797C8.45078 6.93342 8.4891 7.33555 8.41442 7.72351C8.33974 8.11148 8.15541 8.46784 7.88472 8.74755C7.61404 9.02725 7.26917 9.21773 6.89372 9.2949C6.51828 9.37207 6.12911 9.33247 5.77545 9.18109C5.42179 9.02972 5.11951 8.77337 4.90683 8.44447C4.69416 8.11558 4.58065 7.7289 4.58065 7.33333C4.58065 6.8029 4.78456 6.29419 5.14754 5.91912C5.51051 5.54405 6.00281 5.33333 6.51613 5.33333ZM6.51613 4C5.87812 4 5.25445 4.1955 4.72397 4.56177C4.19349 4.92804 3.78003 5.44864 3.53587 6.05772C3.29172 6.66681 3.22784 7.33703 3.35231 7.98363C3.47677 8.63024 3.784 9.22418 4.23514 9.69036C4.68628 10.1565 5.26106 10.474 5.88681 10.6026C6.51255 10.7312 7.16115 10.6652 7.75059 10.4129C8.34003 10.1606 8.84383 9.7334 9.19829 9.18523C9.55274 8.63707 9.74194 7.9926 9.74194 7.33333C9.74194 6.44928 9.40207 5.60143 8.79712 4.97631C8.19216 4.35119 7.37167 4 6.51613 4Z"/>
</mask>
<path d="M17.4839 15.3333H17.4703C17.3325 15.33 17.1993 15.2813 17.0902 15.1942C16.9811 15.1071 16.9018 14.9863 16.8639 14.8493L14.8194 7.46L13.571 10.9C13.525 11.0271 13.4427 11.1366 13.3349 11.2141C13.2271 11.2915 13.099 11.3331 12.9677 11.3333H10.3871V10H12.5206L14.2994 5.09933C14.347 4.96793 14.4335 4.85541 14.5466 4.77779C14.6597 4.70017 14.7937 4.6614 14.9293 4.66702C15.065 4.67263 15.1955 4.72234 15.3023 4.80906C15.409 4.89578 15.4866 5.01509 15.5239 5.15L17.531 12.4113L18.8077 8.456C18.8504 8.32325 18.9325 8.20776 19.0423 8.12591C19.152 8.04406 19.284 8.00001 19.4194 8H22V9.33333H19.8839L18.0955 14.8773C18.0529 15.0101 17.9709 15.1257 17.8611 15.2076C17.7512 15.2894 17.6193 15.3334 17.4839 15.3333ZM11.0323 20H9.74194V15.3333C9.74142 14.8031 9.53734 14.2947 9.17448 13.9197C8.81162 13.5447 8.31962 13.3339 7.80645 13.3333H5.22581C4.71264 13.3339 4.22064 13.5447 3.85778 13.9197C3.49492 14.2947 3.29083 14.8031 3.29032 15.3333V20H2V15.3333C2.00102 14.4496 2.34121 13.6024 2.94595 12.9775C3.55068 12.3526 4.37058 12.0011 5.22581 12H7.80645C8.66167 12.0011 9.48158 12.3526 10.0863 12.9775C10.691 13.6024 11.0312 14.4496 11.0323 15.3333V20ZM6.51613 5.33333C6.89893 5.33333 7.27314 5.45063 7.59143 5.67039C7.90971 5.89016 8.15779 6.20251 8.30428 6.56797C8.45078 6.93342 8.4891 7.33555 8.41442 7.72351C8.33974 8.11148 8.15541 8.46784 7.88472 8.74755C7.61404 9.02725 7.26917 9.21773 6.89372 9.2949C6.51828 9.37207 6.12911 9.33247 5.77545 9.18109C5.42179 9.02972 5.11951 8.77337 4.90683 8.44447C4.69416 8.11558 4.58065 7.7289 4.58065 7.33333C4.58065 6.8029 4.78456 6.29419 5.14754 5.91912C5.51051 5.54405 6.00281 5.33333 6.51613 5.33333ZM6.51613 4C5.87812 4 5.25445 4.1955 4.72397 4.56177C4.19349 4.92804 3.78003 5.44864 3.53587 6.05772C3.29172 6.66681 3.22784 7.33703 3.35231 7.98363C3.47677 8.63024 3.784 9.22418 4.23514 9.69036C4.68628 10.1565 5.26106 10.474 5.88681 10.6026C6.51255 10.7312 7.16115 10.6652 7.75059 10.4129C8.34003 10.1606 8.84383 9.7334 9.19829 9.18523C9.55274 8.63707 9.74194 7.9926 9.74194 7.33333C9.74194 6.44928 9.40207 5.60143 8.79712 4.97631C8.19216 4.35119 7.37167 4 6.51613 4Z" fill="#868686"/>
<path d="M17.4839 15.3333L17.486 12.3333H17.4839V15.3333ZM17.4703 15.3333L17.3982 18.3325L17.4342 18.3333H17.4703V15.3333ZM16.8639 14.8493L13.9725 15.6493L13.9727 15.6502L16.8639 14.8493ZM14.8194 7.46L17.7107 6.66L15.2049 -2.39659L11.9993 6.4366L14.8194 7.46ZM13.571 10.9L10.7509 9.8766L10.7497 9.8799L13.571 10.9ZM12.9677 11.3333L12.9677 14.3333L12.9732 14.3333L12.9677 11.3333ZM10.3871 11.3333H7.3871V14.3333H10.3871V11.3333ZM10.3871 10V7H7.3871V10H10.3871ZM12.5206 10V13H14.6233L15.3406 11.0235L12.5206 10ZM14.2994 5.09933L17.1194 6.12286L17.1198 6.12157L14.2994 5.09933ZM15.5239 5.15L18.4154 4.35074L18.4154 4.35049L15.5239 5.15ZM17.531 12.4113L14.6394 13.2106L17.3084 22.8667L20.3859 13.3329L17.531 12.4113ZM18.8077 8.456L21.6627 9.37757L21.6637 9.37433L18.8077 8.456ZM19.4194 8L19.4194 5L19.4192 5L19.4194 8ZM22 8H25V5H22V8ZM22 9.33333V12.3333H25V9.33333H22ZM19.8839 9.33333V6.33333H17.6994L17.0287 8.41233L19.8839 9.33333ZM18.0955 14.8773L15.2404 13.9563L15.2389 13.961L18.0955 14.8773ZM11.0323 20V23H14.0323V20H11.0323ZM9.74194 20H6.74194V23H9.74194V20ZM9.74194 15.3333L12.7419 15.3333L12.7419 15.3304L9.74194 15.3333ZM7.80645 13.3333L7.80955 10.3333H7.80645V13.3333ZM5.22581 13.3333L5.22581 10.3333L5.22271 10.3333L5.22581 13.3333ZM3.29032 15.3333L0.290323 15.3304V15.3333H3.29032ZM3.29032 20V23H6.29032V20H3.29032ZM2 20H-1V23H2V20ZM2 15.3333L-1 15.3299V15.3333H2ZM5.22581 12L5.22581 9L5.22209 9L5.22581 12ZM7.80645 12L7.81016 9H7.80645V12ZM11.0323 15.3333L14.0323 15.3333L14.0323 15.3299L11.0323 15.3333ZM6.51613 5.33333L6.51613 2.33333L6.51613 5.33333ZM9.74194 7.33333L12.7419 7.33333L9.74194 7.33333ZM17.4839 12.3333H17.4703V18.3333H17.4839V12.3333ZM17.5425 12.3342C18.0686 12.3469 18.5654 12.5333 18.9616 12.8494L15.2189 17.539C15.8332 18.0293 16.5964 18.3132 17.3982 18.3325L17.5425 12.3342ZM18.9616 12.8494C19.3561 13.1642 19.6274 13.588 19.755 14.0485L13.9727 15.6502C14.1762 16.3846 14.6062 17.05 15.2189 17.539L18.9616 12.8494ZM19.7552 14.0493L17.7107 6.66L11.928 8.26L13.9725 15.6493L19.7552 14.0493ZM11.9993 6.4366L10.7509 9.8766L16.391 11.9234L17.6394 8.4834L11.9993 6.4366ZM10.7497 9.8799C10.9057 9.44859 11.1912 9.06015 11.5846 8.77756L15.0852 13.6506C15.6941 13.2131 16.1444 12.6055 16.3922 11.9201L10.7497 9.8799ZM11.5846 8.77756C11.9794 8.49397 12.4601 8.33425 12.9623 8.33334L12.9732 14.3333C13.738 14.3319 14.4748 14.089 15.0852 13.6506L11.5846 8.77756ZM12.9677 8.33333H10.3871V14.3333H12.9677V8.33333ZM13.3871 11.3333V10H7.3871V11.3333H13.3871ZM10.3871 13H12.5206V7H10.3871V13ZM15.3406 11.0235L17.1194 6.12286L11.4794 4.07581L9.70065 8.97647L15.3406 11.0235ZM17.1198 6.12157C16.9582 6.56753 16.658 6.96733 16.2441 7.25139L12.8492 2.30419C12.209 2.74349 11.7358 3.36834 11.4789 4.0771L17.1198 6.12157ZM16.2441 7.25139C15.8285 7.53656 15.3246 7.68594 14.8053 7.66445L15.0534 1.66958C14.2627 1.63687 13.491 1.86378 12.8492 2.30419L16.2441 7.25139ZM14.8053 7.66445C14.2863 7.64298 13.7987 7.45279 13.4107 7.13753L17.1939 2.48058C16.5923 1.99189 15.8438 1.70229 15.0534 1.66958L14.8053 7.66445ZM13.4107 7.13753C13.0241 6.82352 12.7581 6.40437 12.6324 5.94951L18.4154 4.35049C18.215 3.62581 17.7939 2.96803 17.1939 2.48058L13.4107 7.13753ZM12.6323 5.94926L14.6394 13.2106L20.4225 11.6121L18.4154 4.35074L12.6323 5.94926ZM20.3859 13.3329L21.6627 9.37757L15.9528 7.53443L14.676 11.4898L20.3859 13.3329ZM21.6637 9.37433C21.5191 9.824 21.2357 10.2326 20.8354 10.531L17.2491 5.7208C16.6293 6.1829 16.1817 6.8225 15.9518 7.53767L21.6637 9.37433ZM20.8354 10.531C20.4336 10.8306 19.9382 11 19.4195 11L19.4192 5C18.6297 5.00003 17.8704 5.25754 17.2491 5.7208L20.8354 10.531ZM19.4194 11H22V5H19.4194V11ZM19 8V9.33333H25V8H19ZM22 6.33333H19.8839V12.3333H22V6.33333ZM17.0287 8.41233L15.2404 13.9563L20.9506 15.7983L22.739 10.2543L17.0287 8.41233ZM15.2389 13.961C15.3833 13.5106 15.6671 13.1013 16.0679 12.8024L19.6542 17.6127C20.2746 17.1501 20.7224 16.5097 20.9521 15.7937L15.2389 13.961ZM16.0679 12.8024C16.4703 12.5024 16.9665 12.333 17.486 12.3333L17.4817 18.3333C18.2721 18.3339 19.0322 18.0764 19.6542 17.6127L16.0679 12.8024ZM11.0323 17H9.74194V23H11.0323V17ZM12.7419 20V15.3333H6.74194V20H12.7419ZM12.7419 15.3304C12.7407 14.0367 12.2437 12.7773 11.3303 11.8334L7.01867 16.006C6.83103 15.8121 6.74216 15.5695 6.74194 15.3362L12.7419 15.3304ZM11.3303 11.8334C10.4137 10.8863 9.14959 10.3347 7.80955 10.3333L7.80336 16.3333C7.48964 16.333 7.20954 16.2032 7.01867 16.006L11.3303 11.8334ZM7.80645 10.3333H5.22581V16.3333H7.80645V10.3333ZM5.22271 10.3333C3.88266 10.3347 2.61856 10.8863 1.70197 11.8334L6.01359 16.006C5.82272 16.2032 5.54262 16.333 5.2289 16.3333L5.22271 10.3333ZM1.70197 11.8334C0.788601 12.7773 0.291574 14.0367 0.290324 15.3304L6.29032 15.3362C6.2901 15.5695 6.20123 15.8121 6.01359 16.006L1.70197 11.8334ZM0.290323 15.3333V20H6.29032V15.3333H0.290323ZM3.29032 17H2V23H3.29032V17ZM5 20V15.3333H-1V20H5ZM5 15.3368C5.00014 15.2164 5.04739 15.1199 5.10175 15.0637L0.790142 10.8912C-0.364959 12.0848 -0.998089 13.6828 -0.999998 15.3299L5 15.3368ZM5.10175 15.0637C5.1529 15.0109 5.20096 15 5.22952 15L5.22209 9C3.54021 9.00208 1.94846 9.69429 0.790142 10.8912L5.10175 15.0637ZM5.22581 15H7.80645V9H5.22581V15ZM7.80274 15C7.8313 15 7.87935 15.0109 7.9305 15.0637L12.2421 10.8912C11.0838 9.69429 9.49205 9.00208 7.81016 9L7.80274 15ZM7.9305 15.0637C7.98487 15.1199 8.03212 15.2164 8.03226 15.3368L14.0323 15.3299C14.0303 13.6828 13.3972 12.0848 12.2421 10.8912L7.9305 15.0637ZM8.03226 15.3333V20H14.0323V15.3333H8.03226ZM6.51613 8.33333C6.28326 8.33333 6.06412 8.26148 5.8869 8.13911L9.29596 3.20167C8.48215 2.63978 7.5146 2.33333 6.51613 2.33333L6.51613 8.33333ZM5.8869 8.13911C5.71094 8.01762 5.58833 7.85546 5.51967 7.68418L11.0889 5.45175C10.7273 4.54956 10.1085 3.76269 9.29596 3.20167L5.8869 8.13911ZM5.51967 7.68418C5.45131 7.51365 5.43484 7.33135 5.46851 7.15644L11.3603 8.29059C11.5434 7.33975 11.4502 6.35319 11.0889 5.45175L5.51967 7.68418ZM5.46851 7.15644C5.50225 6.98113 5.58781 6.8071 5.72892 6.66128L10.0405 10.8338C10.723 10.1286 11.1772 9.24182 11.3603 8.29059L5.46851 7.15644ZM5.72892 6.66128C5.87105 6.51442 6.06424 6.40268 6.28972 6.35634L7.49772 12.2335C8.4741 12.0328 9.35704 11.5401 10.0405 10.8338L5.72892 6.66128ZM6.28972 6.35634C6.51594 6.30984 6.7493 6.33467 6.95593 6.42311L4.59498 11.9391C5.50893 12.3303 6.52061 12.4343 7.49772 12.2335L6.28972 6.35634ZM6.95593 6.42311C7.16135 6.51103 7.32094 6.65295 7.42604 6.81549L2.38762 10.0735C2.91807 10.8938 3.68223 11.5484 4.59498 11.9391L6.95593 6.42311ZM7.42604 6.81549C7.5305 6.97704 7.58065 7.15703 7.58065 7.33333H1.58065C1.58065 8.30076 1.85782 9.25411 2.38762 10.0735L7.42604 6.81549ZM7.58065 7.33333C7.58065 7.56739 7.49159 7.81086 7.30334 8.00538L2.99173 3.83286C2.07753 4.77752 1.58065 6.03841 1.58065 7.33333H7.58065ZM7.30334 8.00538C7.11186 8.20325 6.83079 8.33333 6.51613 8.33333L6.51613 2.33333C5.17483 2.33333 3.90916 2.88484 2.99173 3.83286L7.30334 8.00538ZM6.51613 1C5.26245 1 4.04543 1.38465 3.01944 2.09305L6.4285 7.03049C6.46346 7.00634 6.49379 7 6.51613 7V1ZM3.01944 2.09305C1.99471 2.80057 1.21056 3.79569 0.751261 4.94151L6.32048 7.17394C6.34949 7.10158 6.39226 7.0555 6.4285 7.03049L3.01944 2.09305ZM0.751261 4.94151C0.292256 6.08658 0.173569 7.34123 0.406389 8.55071L6.29822 7.41656C6.2821 7.33283 6.29118 7.24704 6.32048 7.17394L0.751261 4.94151ZM0.406389 8.55071C0.639284 9.76058 1.2164 10.8849 2.07933 11.7766L6.39095 7.60409C6.3516 7.56343 6.31426 7.49989 6.29822 7.41656L0.406389 8.55071ZM2.07933 11.7766C2.94328 12.6694 4.05613 13.2891 5.2828 13.5412L6.49081 7.66405C6.46599 7.65895 6.42927 7.6437 6.39095 7.60409L2.07933 11.7766ZM5.2828 13.5412C6.51022 13.7935 7.78134 13.663 8.93107 13.1709L6.57012 7.65495C6.54097 7.66743 6.51488 7.669 6.49081 7.66405L5.2828 13.5412ZM8.93107 13.1709C10.0796 12.6793 11.0453 11.8538 11.7175 10.8142L6.67908 7.55625C6.6424 7.61298 6.60047 7.64196 6.57012 7.65495L8.93107 13.1709ZM11.7175 10.8142C12.3891 9.77561 12.7419 8.56447 12.7419 7.33333L6.74194 7.33333C6.74194 7.42074 6.7164 7.49853 6.67908 7.55625L11.7175 10.8142ZM12.7419 7.33333C12.7419 5.68479 12.1091 4.08476 10.9529 2.89005L6.64131 7.06257C6.69505 7.1181 6.74194 7.21377 6.74194 7.33333L12.7419 7.33333ZM10.9529 2.89005C9.79351 1.69198 8.19965 1 6.51613 1V7C6.54368 7 6.59081 7.01039 6.64131 7.06257L10.9529 2.89005Z" fill="#868686" mask="url(#path-1-inside-1_287_2474)"/>
</svg>
