<svg width="18" height="18" viewBox="0 0 18 18" fill="none" xmlns="http://www.w3.org/2000/svg">
<path d="M13.3125 5.25H13.6875C13.85 5.25 13.9845 5.19675 14.091 5.09025C14.1975 4.98375 14.2505 4.8495 14.25 4.6875V4.3125C14.25 4.15 14.1968 4.01575 14.0903 3.90975C13.9838 3.80375 13.8495 3.7505 13.6875 3.75H13.3125C13.15 3.75 13.0157 3.80325 12.9097 3.90975C12.8037 4.01625 12.7505 4.1505 12.75 4.3125V4.6875C12.75 4.85 12.8032 4.9845 12.9097 5.091C13.0162 5.1975 13.1505 5.2505 13.3125 5.25ZM13.5 15.75C12.4625 15.75 11.5783 15.3843 10.8473 14.6528C10.1163 13.9213 9.7505 13.037 9.75 12C9.75 10.9625 10.1158 10.0783 10.8473 9.34725C11.5788 8.61625 12.463 8.2505 13.5 8.25C14.5375 8.25 15.422 8.61575 16.1535 9.34725C16.885 10.0788 17.2505 10.963 17.25 12C17.25 13.0375 16.8843 13.922 16.1528 14.6535C15.4213 15.385 14.537 15.7505 13.5 15.75ZM13.125 12.375V13.875C13.125 13.975 13.1625 14.0625 13.2375 14.1375C13.3125 14.2125 13.4 14.25 13.5 14.25C13.6 14.25 13.6875 14.2125 13.7625 14.1375C13.8375 14.0625 13.875 13.975 13.875 13.875V12.375H15.375C15.475 12.375 15.5625 12.3375 15.6375 12.2625C15.7125 12.1875 15.75 12.1 15.75 12C15.75 11.9 15.7125 11.8125 15.6375 11.7375C15.5625 11.6625 15.475 11.625 15.375 11.625H13.875V10.125C13.875 10.025 13.8375 9.9375 13.7625 9.8625C13.6875 9.7875 13.6 9.75 13.5 9.75C13.4 9.75 13.3125 9.7875 13.2375 9.8625C13.1625 9.9375 13.125 10.025 13.125 10.125V11.625H11.625C11.525 11.625 11.4375 11.6625 11.3625 11.7375C11.2875 11.8125 11.25 11.9 11.25 12C11.25 12.1 11.2875 12.1875 11.3625 12.2625C11.4375 12.3375 11.525 12.375 11.625 12.375H13.125ZM17.25 8.34375C16.7625 7.81875 16.1938 7.42175 15.5438 7.15275C14.8938 6.88375 14.2125 6.7495 13.5 6.75C13.3625 6.75 13.2342 6.75325 13.1152 6.75975C12.9962 6.76625 12.8745 6.7815 12.75 6.8055V6.768C12.75 6.518 12.6968 6.28675 12.5903 6.07425C12.4838 5.86175 12.3307 5.68675 12.1312 5.54925L7.5 2.2125C7.5 1.8125 7.64375 1.46875 7.93125 1.18125C8.21875 0.89375 8.5625 0.75 8.9625 0.75H15.75C16.1625 0.75 16.5158 0.897 16.8098 1.191C17.1038 1.485 17.2505 1.838 17.25 2.25V8.34375ZM0.75 13.5V7.51875C0.75 7.26875 0.80625 7.0375 0.91875 6.825C1.03125 6.6125 1.1875 6.4375 1.3875 6.3L5.1375 3.61875C5.4 3.43125 5.6875 3.3375 6 3.3375C6.3125 3.3375 6.6 3.43125 6.8625 3.61875L10.8375 6.45C10.975 6.55 11.0782 6.66875 11.1472 6.80625C11.2162 6.94375 11.2505 7.09375 11.25 7.25625C10.35 7.68125 9.625 8.32825 9.075 9.19725C8.525 10.0662 8.25 11.0005 8.25 12C8.25 12.3875 8.29075 12.772 8.37225 13.1535C8.45375 13.535 8.58175 13.9005 8.75625 14.25H8.25C8.0375 14.25 7.8595 14.178 7.716 14.034C7.5725 13.89 7.5005 13.712 7.5 13.5V10.3125C7.5 10.15 7.44675 10.0158 7.34025 9.90975C7.23375 9.80375 7.0995 9.7505 6.9375 9.75H5.0625C4.9 9.75 4.76575 9.80325 4.65975 9.90975C4.55375 10.0163 4.5005 10.1505 4.5 10.3125V13.5C4.5 13.7125 4.428 13.8907 4.284 14.0347C4.14 14.1787 3.962 14.2505 3.75 14.25H1.5C1.2875 14.25 1.1095 14.178 0.966 14.034C0.8225 13.89 0.7505 13.712 0.75 13.5Z" fill="#868686"/>
</svg>
