<svg width="20" height="20" viewBox="0 0 20 20" fill="none" xmlns="http://www.w3.org/2000/svg">
<path d="M16.666 17.0833H3.33268C2.41602 17.0833 1.66602 16.3333 1.66602 15.4167V6.70833C1.66602 6.16667 1.91602 5.66667 2.37435 5.33333L9.99935 0L17.6243 5.33333C18.0827 5.625 18.3327 6.16667 18.3327 6.70833V15.4167C18.3327 16.3333 17.5827 17.0833 16.666 17.0833Z" fill="#868686"/>
<path d="M5 4.58301H15V13.7497H5V4.58301Z" fill="white"/>
<path d="M10 5.66699L7.5 8.91699H12.5L10 5.66699Z" fill="#1C1E26"/>
<path d="M16.666 17.083H3.33268C2.41602 17.083 1.66602 16.333 1.66602 15.4163V7.08301L9.99935 12.4997L18.3327 7.08301V15.4163C18.3327 16.333 17.5827 17.083 16.666 17.083Z" fill="#D1D1D1"/>
<path d="M9.99935 11.6663L10.8327 11.1247V8.33301H9.16602V11.1247L9.99935 11.6663Z" fill="#1C1E26"/>
</svg>
